<?xml version="1.0" standalone="no"?>
<!DOCTYPE svg PUBLIC "-//W3C//DTD SVG 20010904//EN"
 "http://www.w3.org/TR/2001/REC-SVG-20010904/DTD/svg10.dtd">
<svg version="1.0" xmlns="http://www.w3.org/2000/svg"
 width="1080.000000pt" height="1920.000000pt" viewBox="0 0 1080.000000 1920.000000"
 preserveAspectRatio="xMidYMid meet">
<metadata>
Created by potrace 1.16, written by Peter Selinger 2001-2019
</metadata>
<g transform="translate(0.000000,1920.000000) scale(0.100000,-0.100000)"
fill="#000000" stroke="none">
<path d="M50 9600 l0 -5370 5370 0 5370 0 0 5370 0 5370 -5370 0 -5370 0 0
-5370z m6089 4970 c87 -48 141 -110 169 -196 28 -86 28 -113 0 -192 -28 -79
-90 -149 -173 -194 l-60 -32 -210 -6 -210 -5 -3 -70 c-5 -124 -22 -115 201
-115 105 0 209 -5 230 -11 53 -14 136 -70 169 -112 15 -20 40 -62 55 -94 l28
-58 0 -680 0 -680 -28 -58 c-36 -76 -91 -142 -136 -162 -20 -9 -52 -25 -71
-36 -32 -17 -57 -19 -287 -19 -151 0 -254 -4 -258 -10 -3 -5 11 -21 32 -35 55
-37 103 -70 148 -105 22 -16 54 -36 70 -44 17 -8 39 -24 49 -35 11 -12 24 -21
31 -21 6 0 20 -8 31 -17 17 -16 105 -78 204 -143 20 -14 57 -38 80 -55 23 -16
60 -41 80 -55 21 -14 64 -42 97 -64 32 -21 69 -47 83 -57 14 -11 42 -28 63
-39 20 -11 37 -25 37 -30 0 -6 12 -16 28 -22 15 -7 35 -19 45 -27 10 -8 33
-24 52 -36 49 -29 177 -118 196 -135 9 -8 40 -28 69 -45 29 -16 67 -43 83 -58
24 -21 37 -27 57 -22 14 4 26 10 28 13 8 21 48 82 182 277 8 12 24 35 34 51
47 70 83 123 125 179 17 22 40 56 51 75 11 19 36 55 55 80 19 25 43 61 54 81
11 19 27 41 35 48 9 8 16 18 16 23 0 6 11 23 25 40 14 16 25 42 25 56 0 25
-40 97 -74 132 -7 8 -21 33 -30 55 -16 37 -16 40 0 52 28 20 1062 19 1090 -1
17 -13 19 -30 22 -154 4 -131 3 -141 -17 -161 -29 -29 -46 -26 -73 9 -12 17
-27 30 -34 30 -7 0 -15 14 -19 31 -4 19 -16 34 -30 39 -13 5 -26 13 -29 18 -6
11 -73 -17 -79 -33 -2 -5 -1 -47 1 -92 3 -60 8 -83 17 -83 11 0 11 8 4 32 -5
18 -9 44 -9 57 0 25 35 71 54 71 14 -1 86 -67 86 -79 0 -14 70 -83 120 -118
25 -17 61 -34 80 -38 43 -9 88 -31 117 -58 l22 -20 9 24 c5 13 12 61 15 106 4
53 14 97 27 122 11 22 20 45 20 51 0 23 31 81 102 187 42 63 121 127 165 133
57 8 68 39 65 173 -2 93 -8 124 -38 215 -20 59 -42 114 -50 123 -8 8 -14 20
-14 26 0 19 -70 102 -124 146 -36 29 -78 52 -126 67 l-71 23 -91 -22 c-81 -19
-98 -27 -150 -73 -84 -73 -168 -207 -187 -298 -5 -25 -18 -81 -30 -124 -12
-44 -21 -110 -21 -148 0 -81 -11 -108 -45 -108 -42 0 -65 43 -65 122 0 38 4
78 10 88 5 10 17 64 25 121 9 56 24 118 35 138 10 20 24 53 30 73 6 21 16 40
21 44 5 3 16 21 24 40 16 40 44 77 95 132 47 50 82 75 166 116 67 34 77 36
171 36 93 0 104 -2 159 -31 86 -46 163 -106 186 -145 11 -19 23 -34 28 -34 4
0 13 -13 20 -30 7 -16 16 -30 20 -30 4 0 14 -15 23 -32 8 -18 27 -58 41 -89
14 -31 26 -63 26 -73 0 -9 9 -42 21 -74 15 -41 22 -92 26 -185 3 -70 10 -130
15 -133 5 -3 32 -7 61 -8 62 -3 119 -38 212 -131 64 -63 137 -182 150 -245 4
-19 13 -45 21 -57 27 -43 37 -161 31 -365 l-6 -196 27 -35 c15 -19 36 -50 47
-68 11 -18 25 -41 31 -51 6 -10 18 -26 26 -35 17 -19 175 -252 194 -284 6 -11
21 -30 33 -43 11 -12 21 -25 21 -29 0 -4 18 -33 40 -65 63 -89 93 -131 120
-172 14 -21 43 -64 65 -96 47 -69 55 -109 62 -323 4 -150 4 -154 -19 -178 -22
-24 -27 -25 -93 -19 -109 10 -179 21 -192 29 -8 5 -13 30 -13 65 0 31 -5 74
-10 94 -9 33 -16 39 -53 49 -92 24 -87 17 -118 164 -15 68 -37 95 -78 95 -17
0 -42 10 -57 23 -24 21 -27 32 -32 101 -5 82 -20 106 -68 106 -64 0 -92 27
-195 188 -22 34 -44 62 -50 62 -5 0 -35 -9 -66 -20 -82 -29 -147 -26 -240 11
-43 17 -84 39 -92 50 -7 10 -19 19 -26 19 -7 0 -29 19 -49 43 -20 23 -43 50
-51 60 -33 38 -95 155 -95 179 0 9 -9 35 -21 58 -14 26 -24 71 -29 132 -11
129 -17 150 -40 138 -51 -27 -216 15 -273 68 -13 12 -29 22 -35 22 -7 0 -18
11 -24 25 -6 13 -20 27 -30 31 -11 3 -23 17 -28 30 -11 27 -30 32 -30 8 0 -16
14 -34 85 -105 65 -65 79 -76 102 -83 11 -4 25 -14 30 -24 13 -27 16 -898 3
-922 -18 -34 -56 -26 -80 18 -61 109 -83 122 -122 72 -13 -17 -35 -46 -50 -64
-16 -19 -28 -38 -28 -44 0 -5 -7 -15 -16 -23 -8 -7 -24 -29 -35 -48 -11 -20
-47 -74 -80 -121 -32 -47 -84 -121 -114 -165 -30 -44 -68 -98 -85 -120 -16
-22 -33 -47 -36 -55 -4 -8 -19 -31 -33 -50 -29 -38 -37 -50 -66 -100 -11 -18
-28 -41 -37 -51 -17 -18 -20 -18 -52 -3 -19 9 -39 27 -45 40 -6 13 -33 52 -60
87 -27 35 -56 77 -65 93 -21 36 -61 98 -104 159 -17 25 -32 51 -32 57 0 9 30
58 103 168 9 14 30 43 46 65 17 22 40 56 51 75 11 19 36 55 55 80 19 25 43 61
54 81 11 19 26 41 35 48 24 20 30 73 12 114 -8 21 -19 37 -24 37 -5 0 -17 17
-26 38 -20 43 -77 94 -84 74 -2 -7 -18 -30 -35 -52 -63 -78 -77 -98 -78 -107
0 -4 -20 -35 -44 -68 -25 -33 -61 -85 -81 -115 -21 -30 -43 -64 -51 -75 -7
-11 -24 -37 -38 -57 -26 -39 -50 -47 -86 -28 -17 10 -33 30 -91 119 -10 14
-24 35 -33 46 -31 39 -65 90 -77 116 -7 14 -27 38 -45 53 l-31 26 -12 -34 c-8
-25 -24 -42 -57 -62 l-46 -27 -56 23 c-31 13 -65 30 -76 40 -11 9 -33 25 -50
35 -16 10 -34 22 -40 27 -34 28 -88 57 -96 53 -13 -9 -12 -2220 1 -2246 10
-18 23 -19 183 -19 193 0 214 -6 235 -61 22 -57 2 -113 -48 -139 -39 -20 -59
-20 -3315 -20 -3258 0 -3276 0 -3315 20 -50 25 -64 51 -57 108 8 77 27 86 174
92 124 5 128 6 140 30 19 37 19 5403 0 5418 -6 6 -26 14 -42 18 -68 17 -151
62 -185 102 -80 92 -85 106 -85 227 0 103 2 113 25 144 54 70 103 121 123 127
12 3 29 13 38 20 9 8 36 18 60 23 24 5 1256 8 2754 7 l2710 -1 64 -35z m-2819
-7075 c14 -8 40 -22 59 -30 46 -22 138 -121 163 -175 12 -25 29 -56 39 -69 11
-13 19 -35 19 -50 0 -14 12 -57 26 -96 35 -97 48 -350 35 -646 -15 -311 -56
-460 -170 -613 -36 -48 -42 -62 -32 -75 18 -26 28 -52 46 -121 27 -108 28
-125 9 -161 -24 -49 -122 -157 -147 -165 -12 -3 -32 -15 -43 -26 -31 -28 -84
-21 -101 12 -36 71 -62 140 -68 180 -4 24 -14 54 -21 65 -7 11 -20 53 -29 94
-8 40 -18 77 -21 82 -2 5 -26 15 -52 23 -55 16 -110 51 -152 96 -45 48 -100
142 -100 170 0 14 -9 43 -21 64 -31 59 -44 205 -44 511 0 289 14 480 40 542 9
21 21 58 26 83 25 112 134 240 244 289 63 27 80 30 170 31 70 0 108 -5 125
-15z m2208 -10 c17 -14 35 -25 41 -25 20 0 100 -81 141 -142 22 -33 40 -63 40
-67 0 -3 9 -24 21 -45 11 -21 27 -73 34 -115 8 -42 18 -89 23 -106 40 -123 42
-589 4 -755 -11 -47 -23 -111 -26 -142 -4 -31 -16 -68 -26 -81 -10 -12 -21
-40 -25 -60 -10 -52 -80 -135 -161 -190 -89 -60 -371 -60 -452 1 -109 80 -192
211 -207 323 -3 30 -16 88 -27 129 -19 67 -21 104 -22 350 0 191 3 289 12 320
7 25 19 91 27 147 7 56 22 119 33 140 11 21 22 52 26 68 9 37 67 125 112 170
19 19 67 50 107 69 68 32 78 34 184 35 105 1 113 0 141 -24z m1983 -5 c86 -45
160 -127 174 -195 4 -16 16 -52 28 -80 20 -46 22 -71 25 -288 2 -142 -1 -254
-7 -280 -17 -71 -55 -171 -76 -201 -35 -50 -99 -106 -135 -117 -19 -7 -105
-14 -190 -16 -85 -3 -161 -10 -167 -15 -19 -15 -17 -142 2 -161 8 -8 37 -20
66 -27 76 -19 81 -35 77 -282 -3 -196 -3 -200 -27 -219 -22 -18 -43 -19 -341
-19 -309 0 -317 1 -336 21 -17 19 -19 41 -22 218 -4 228 2 257 55 292 21 13
43 35 50 49 10 19 13 116 13 389 l0 364 -25 42 c-13 24 -40 52 -60 64 l-35 20
0 220 c0 186 2 222 16 235 14 14 67 16 437 16 l422 0 56 -30z m785 16 c18 -14
19 -36 24 -685 l5 -671 48 -43 47 -44 0 -212 c0 -212 0 -212 -25 -236 l-24
-25 -269 0 c-251 0 -271 1 -293 19 -24 19 -24 23 -27 219 -4 229 3 260 62 288
19 9 37 26 40 38 3 12 6 198 6 415 l0 393 -37 35 c-21 18 -46 41 -55 49 -16
12 -18 36 -18 228 0 182 2 217 16 230 22 22 469 24 500 2z m-7523 -56 c20 -16
27 -33 32 -78 4 -31 15 -82 25 -112 10 -30 23 -97 29 -149 15 -117 58 -209 81
-171 4 7 11 43 15 79 4 36 15 86 25 112 10 25 23 80 29 121 10 70 43 178 64
206 7 9 56 12 183 12 183 0 221 -7 230 -44 3 -16 1 -661 -5 -1141 0 -22 2
-126 5 -230 3 -118 1 -201 -5 -217 -14 -38 -51 -58 -116 -65 -59 -6 -223 14
-240 29 -6 5 -12 102 -15 230 -3 152 -9 223 -16 225 -8 3 -14 -21 -19 -64 -4
-37 -15 -88 -25 -113 -10 -25 -24 -63 -32 -85 -17 -48 -67 -85 -115 -85 -32 0
-35 3 -67 74 -19 41 -39 105 -45 141 -5 37 -13 70 -16 73 -14 15 -20 -24 -28
-191 -4 -100 -13 -187 -19 -194 -26 -32 -236 -55 -301 -34 -72 24 -67 -42 -67
829 0 611 3 793 13 812 22 43 50 50 218 50 142 0 159 -2 182 -20z m1659 -19
c30 -34 33 -48 48 -269 6 -84 15 -164 20 -177 5 -13 14 -93 20 -177 6 -84 20
-200 31 -258 10 -58 24 -171 29 -250 6 -80 15 -170 21 -200 19 -109 32 -247
25 -274 -13 -53 -94 -66 -279 -47 -44 5 -85 15 -92 22 -8 8 -18 46 -24 84 -20
125 -23 140 -39 158 -18 20 -75 23 -90 4 -6 -7 -14 -37 -18 -67 -10 -85 -32
-172 -44 -180 -22 -13 -248 -33 -324 -28 -118 8 -120 11 -113 178 4 74 13 160
21 190 8 31 20 121 26 200 10 136 16 185 39 320 5 30 15 127 21 215 6 88 15
176 20 195 14 57 30 190 30 253 0 65 17 107 52 125 30 15 153 20 398 16 l195
-3 27 -30z m2062 30 c117 -8 121 -13 137 -181 6 -69 15 -132 19 -140 5 -9 16
-117 25 -240 9 -124 19 -228 21 -232 11 -18 34 -179 34 -239 0 -36 9 -115 20
-175 10 -60 24 -178 31 -263 12 -169 8 -194 -37 -211 -54 -21 -303 -2 -332 25
-9 8 -17 53 -23 121 -6 85 -12 112 -26 121 -19 14 -81 17 -100 5 -8 -5 -16
-51 -21 -120 -5 -62 -14 -118 -21 -125 -14 -14 -99 -25 -261 -33 -120 -6 -126
-5 -160 18 l-35 24 0 84 c1 47 8 123 17 170 9 47 19 135 22 195 7 104 12 144
35 275 5 30 15 121 21 202 6 81 18 178 26 215 8 37 19 147 24 243 9 160 12
178 35 212 14 21 35 40 48 43 48 11 378 15 501 6z m5691 -396 c51 -31 65 -31
111 0 29 20 49 25 99 25 101 0 100 4 100 -277 0 -235 0 -235 -24 -254 -17 -14
-38 -19 -80 -18 -103 2 -112 7 -133 69 -22 67 -86 140 -122 140 -17 0 -30 -10
-45 -35 l-20 -35 20 -34 c24 -41 82 -83 127 -92 18 -4 38 -15 45 -25 7 -10 24
-20 37 -24 55 -13 180 -163 180 -214 0 -12 9 -47 20 -78 25 -72 29 -277 6
-321 -8 -15 -17 -46 -21 -67 -8 -45 -58 -126 -102 -166 -15 -14 -50 -39 -78
-55 -48 -28 -55 -29 -172 -29 -111 0 -124 2 -152 23 -46 34 -81 37 -129 13
-28 -14 -60 -21 -101 -21 -92 0 -91 -3 -91 282 0 275 -7 258 107 258 96 0 110
-6 124 -49 22 -65 100 -161 131 -161 11 0 30 12 45 26 47 47 13 121 -77 161
-19 8 -45 23 -58 33 -13 10 -36 22 -52 25 -44 10 -144 114 -166 172 -10 27
-25 59 -33 73 -13 20 -16 59 -16 215 0 176 2 192 21 225 12 19 25 46 29 60 11
35 77 113 112 130 15 8 39 22 52 32 20 15 44 18 145 18 111 0 124 -2 161 -25z
m-1260 -45 c17 -19 19 -19 38 -3 17 16 44 18 262 18 190 0 245 -3 258 -14 15
-12 17 -54 17 -426 0 -253 4 -423 10 -441 6 -16 23 -36 39 -46 57 -32 63 -58
59 -275 l-3 -195 -28 -24 c-27 -23 -32 -24 -207 -24 -175 0 -178 0 -201 24
-13 13 -28 43 -33 67 -13 53 -36 58 -50 10 -7 -24 -26 -45 -68 -76 -51 -37
-69 -44 -126 -50 -91 -8 -165 8 -213 46 -21 17 -39 34 -39 39 0 5 -11 21 -24
37 -14 16 -28 43 -32 59 -4 16 -16 47 -28 69 -20 38 -21 58 -24 355 -2 182 -8
322 -14 333 -5 10 -25 25 -44 33 -20 8 -39 25 -44 40 -6 14 -10 117 -10 229 0
172 2 206 16 219 13 14 49 16 243 16 216 0 229 -1 246 -20z"/>
<path d="M1055 13941 l-80 -6 -3 -2701 c-2 -2228 0 -2703 11 -2712 8 -7 83
-14 178 -18 161 -7 164 -6 184 16 20 22 20 38 22 2709 2 1683 -1 2692 -7 2701
-10 17 -159 22 -305 11z"/>
<path d="M1627 13943 c-9 -8 -9 -5415 -1 -5437 5 -14 46 -16 354 -16 340 0
347 0 366 21 18 20 19 55 22 1098 1 592 0 1086 -3 1097 -2 12 -12 25 -21 28
-15 6 -73 -18 -84 -34 -9 -14 -106 -76 -155 -100 l-47 -23 -50 24 c-28 13 -57
34 -65 46 -16 25 -20 83 -6 106 11 20 119 101 263 197 54 36 195 133 262 180
32 22 61 40 66 40 5 0 21 10 35 23 29 26 95 74 124 90 27 16 177 119 228 157
22 16 56 38 76 49 19 11 41 27 48 35 8 9 19 16 25 16 7 0 22 9 34 20 20 19 42
34 111 75 19 11 43 30 54 43 11 12 24 22 29 22 9 0 88 51 156 101 31 23 40 34
30 40 -7 5 -321 9 -698 9 -461 0 -698 4 -724 11 -67 19 -164 92 -194 147 -50
93 -47 35 -47 797 l0 710 32 60 c29 56 50 79 128 139 45 35 118 46 306 46 167
0 170 0 194 25 21 20 25 34 25 85 0 56 -2 61 -26 70 -28 11 -837 14 -847 3z"/>
<path d="M2753 13943 c-16 -6 -18 -135 -3 -164 11 -19 36 -19 1325 -19 1307 0
1314 0 1325 20 6 11 10 53 8 93 l-3 72 -1320 2 c-726 1 -1326 -1 -1332 -4z"/>
<path d="M2101 13507 c-40 -49 -41 -61 -41 -704 l0 -618 24 -45 c17 -32 32
-47 54 -52 17 -5 854 -7 1861 -6 1485 3 1832 5 1843 16 10 10 14 120 16 518 3
563 7 531 -66 504 -20 -7 -59 -15 -86 -19 l-51 -6 -5 -375 c-5 -391 -7 -407
-50 -430 -28 -15 -107 -12 -139 5 -16 8 -34 28 -40 46 -7 21 -11 152 -11 383
0 193 -4 356 -8 362 -4 6 -31 14 -60 17 -29 3 -72 17 -95 29 -51 28 -67 74
-49 136 10 32 20 42 64 63 49 23 60 24 268 24 190 0 221 -2 258 -19 62 -28 75
-13 70 80 -2 40 -9 78 -17 88 -12 15 -162 16 -1871 16 -1531 0 -1859 -2 -1869
-13z m574 -172 c125 -32 181 -70 243 -165 35 -53 36 -58 37 -150 0 -94 -1 -96
-38 -152 -45 -69 -130 -143 -176 -155 -19 -5 -36 -14 -38 -19 -2 -6 52 -64
120 -130 88 -85 126 -129 130 -150 15 -80 -32 -134 -118 -134 -50 0 -57 3
-126 61 -40 33 -93 81 -116 105 -24 24 -48 44 -52 44 -11 0 -21 -37 -21 -81 0
-49 -57 -125 -98 -131 -69 -10 -100 2 -132 49 l-30 44 0 430 c0 411 1 432 20
469 32 63 93 87 227 89 48 1 105 -7 168 -24z m1097 -2 c47 -21 88 -70 88 -104
0 -28 -44 -83 -85 -106 -36 -21 -53 -23 -187 -23 -135 0 -150 -2 -168 -20 -14
-14 -20 -33 -20 -65 0 -54 25 -85 71 -85 17 0 52 -9 79 -21 39 -17 53 -29 69
-64 l20 -43 -22 -41 c-24 -44 -56 -61 -114 -61 -45 0 -89 -24 -97 -52 -3 -13
-6 -44 -6 -70 0 -37 4 -50 19 -58 11 -5 86 -10 168 -11 170 0 199 -8 243 -63
39 -50 38 -83 -3 -128 -43 -47 -66 -50 -354 -46 -217 3 -233 4 -260 24 -54 40
-53 33 -51 526 3 391 5 459 18 472 8 8 42 26 75 40 59 26 63 26 265 23 185 -2
210 -5 252 -24z m474 -11 c33 -18 103 -95 151 -166 16 -23 35 -48 44 -56 23
-22 110 -128 149 -183 19 -27 46 -61 60 -76 14 -16 30 -37 36 -47 10 -16 13
-17 28 -5 14 12 16 41 16 226 0 228 7 268 52 299 58 41 142 23 178 -36 19 -32
20 -49 20 -475 0 -429 -1 -443 -21 -477 -24 -41 -44 -49 -113 -47 -39 0 -55 6
-76 26 -28 27 -124 144 -298 364 -15 18 -52 64 -84 102 -31 38 -58 74 -61 81
-15 43 -22 -34 -25 -258 l-3 -254 -30 -30 c-26 -25 -38 -30 -79 -30 -87 0
-105 17 -130 121 -16 63 -8 810 9 861 22 67 109 97 177 60z"/>
<path d="M2530 13074 c-13 -33 -13 -100 0 -125 8 -14 21 -19 49 -19 59 0 95
17 115 54 17 31 17 36 2 64 -21 41 -44 52 -106 52 -45 0 -52 -3 -60 -26z"/>
<path d="M4467 11843 c-463 -3 -528 -5 -534 -19 -3 -8 -22 -24 -42 -35 -43
-24 -100 -63 -121 -83 -9 -8 -27 -20 -40 -26 -14 -6 -41 -22 -60 -35 -19 -13
-50 -35 -68 -47 -19 -13 -43 -33 -54 -45 -11 -12 -38 -29 -59 -37 -22 -9 -39
-20 -39 -24 0 -5 -16 -16 -35 -25 -19 -9 -35 -21 -35 -25 0 -5 -18 -17 -40
-27 -22 -10 -47 -26 -56 -36 -10 -11 -23 -19 -30 -19 -7 0 -19 -8 -26 -19 -7
-10 -27 -25 -45 -35 -45 -22 -118 -73 -132 -90 -7 -8 -25 -18 -41 -21 -16 -3
-30 -12 -33 -19 -4 -10 -118 -91 -272 -193 -71 -47 -65 58 -65 -1240 0 -737 4
-1181 10 -1197 l10 -26 958 0 c732 0 961 3 970 12 9 9 12 234 12 953 0 791 3
944 14 965 8 14 22 40 31 58 21 38 70 82 93 82 9 0 31 9 47 20 29 19 48 20
630 20 582 0 601 -1 630 -20 17 -11 38 -20 49 -20 29 0 82 -64 105 -125 21
-55 21 -69 21 -973 0 -599 4 -930 10 -954 9 -32 16 -38 46 -44 51 -9 106 2
127 27 16 20 17 93 17 1208 l0 1186 -25 38 c-14 20 -30 37 -34 37 -10 0 -106
61 -131 83 -15 13 -37 28 -110 77 -39 26 -61 41 -145 97 -27 18 -70 49 -95 68
-25 19 -56 40 -70 46 -14 6 -33 18 -43 27 -10 9 -33 25 -52 37 -58 35 -180
118 -190 130 -5 7 -26 20 -45 30 -40 21 -68 40 -157 108 -34 26 -67 47 -72 47
-6 0 -26 14 -44 30 -19 17 -38 30 -43 30 -4 0 -18 10 -31 22 -28 26 14 25
-666 21z m-186 -1243 c79 -36 129 -92 136 -153 3 -23 11 -59 19 -80 21 -57 21
-994 -1 -1023 -8 -10 -15 -33 -15 -51 0 -60 -27 -99 -114 -164 l-39 -29 -647
0 -647 0 -39 31 c-63 49 -103 97 -109 132 -3 17 -5 301 -3 630 l3 599 26 22
c15 13 32 32 38 44 6 11 23 23 39 26 15 4 41 15 57 26 29 19 50 20 631 20
l601 0 64 -30z"/>
<path d="M5341 10353 c-293 -2 -428 -7 -438 -14 -19 -16 -20 -1787 0 -1811 11
-14 71 -16 524 -20 438 -4 513 -3 518 9 7 20 6 1807 -1 1827 -5 13 -22 16 -93
14 -47 -2 -277 -4 -510 -5z"/>
<path d="M3173 7193 c-10 -37 -10 -1130 0 -1166 6 -22 11 -26 21 -18 20 17 31
235 30 606 0 302 -8 525 -20 583 -6 30 -22 28 -31 -5z"/>
<path d="M5358 7156 c-22 -21 -32 -194 -32 -526 1 -382 10 -526 37 -553 19
-19 20 -19 31 -1 13 23 21 874 9 1003 -8 86 -19 104 -45 77z"/>
<path d="M7157 7003 c-9 -8 -9 -346 -1 -367 9 -24 43 -19 86 10 48 34 53 53
52 187 l-1 108 -34 35 c-24 24 -42 34 -64 34 -18 0 -35 -3 -38 -7z"/>
<path d="M4307 6749 c-4 -30 -10 -115 -13 -189 -6 -121 -5 -137 10 -149 32
-27 37 4 33 185 -4 179 -18 252 -30 153z"/>
<path d="M8940 6364 c0 -200 2 -219 20 -249 28 -46 44 -49 79 -15 l31 28 0
190 c0 206 0 204 -59 217 -18 4 -42 16 -52 26 -19 19 -19 15 -19 -197z"/>
</g>
</svg>
